#Comment line ignore any data following # character 
#Hierarchical Translation and Rotation (.htr) file 
[Header]	
#Header keywords are followed by a single value 
FileType HTR		#Single word string
DataType HTRS		#Translation followed by rotation and scale data
FileVersion 1		#integer
NumSegments 84		#integer
NumFrames 2		#integer
DataFrameRate 30		#integer, data frame rate in this file
EulerRotationOrder ZYX
CalibrationUnits mm
RotationUnits Degrees
GlobalAxisofGravity Y
BoneLengthAxis Y
ScaleFactor 1.00
[SegmentNames&Hierarchy]
#CHILD	PARENT
MASTER GLOBAL
root MASTER
chest root
L_mid_tent01 root
R_mid_tent01 root
spine01 root
Bip01_Neck chest
L_humerus chest
R_humerus chest
weapon_bone chest
Bip01_Head Bip01_Neck
eye_left_bone Bip01_Head
eye_right_bone Bip01_Head
L_forearm L_humerus
L_front_hand L_forearm
L_weapon_bone L_forearm
L_front_hand01_01 L_front_hand
L_front_hand02_01 L_front_hand
L_front_hand03_01 L_front_hand
L_front_hand01_02 L_front_hand01_01
L_front_hand02_02 L_front_hand02_01
L_front_hand03_02 L_front_hand03_01
R_forearm R_humerus
R_front_hand R_forearm
R_weapon_bone R_forearm
R_front_hand01_01 R_front_hand
R_front_hand02_01 R_front_hand
R_front_hand03_01 R_front_hand
R_front_hand01_02 R_front_hand01_01
R_front_hand02_02 R_front_hand02_01
R_front_hand03_02 R_front_hand03_01
null_rope01_connect L_mid_tent01
Rope1_Seg01 null_rope01_connect
Rope1_Seg02 Rope1_Seg01
Rope1_Seg03 Rope1_Seg02
Rope1_Seg04 Rope1_Seg03
Rope1_Seg05 Rope1_Seg04
Rope1_Seg06 Rope1_Seg05
Rope1_Seg07 Rope1_Seg06
Rope1_Seg09 Rope1_Seg07
L_mid_hand01 Rope1_Seg09
L_mid_hand02 Rope1_Seg09
L_mid_hand03 Rope1_Seg09
null_rope02_connect R_mid_tent01
Rope2_Seg01 null_rope02_connect
Rope2_Seg02 Rope2_Seg01
Rope2_Seg03 Rope2_Seg02
Rope2_Seg04 Rope2_Seg03
Rope2_Seg05 Rope2_Seg04
Rope2_Seg06 Rope2_Seg05
Rope2_Seg07 Rope2_Seg06
Rope2_Seg09 Rope2_Seg07
R_mid_hand01 Rope2_Seg09
R_mid_hand02 Rope2_Seg09
R_mid_hand03 Rope2_Seg09
spine02 spine01
spine03 spine02
pelvis spine03
null_rope03_connect pelvis
null_rope04_connect pelvis
Rope3_Seg01 null_rope03_connect
Rope3_Seg02 Rope3_Seg01
Rope3_Seg03 Rope3_Seg02
Rope3_Seg04 Rope3_Seg03
Rope3_Seg05 Rope3_Seg04
Rope3_Seg06 Rope3_Seg05
Rope3_Seg07 Rope3_Seg06
Rope3_Seg08 Rope3_Seg07
Rope3_Seg09 Rope3_Seg08
R_rear_hand01 Rope3_Seg09
R_rear_hand02 Rope3_Seg09
R_rear_hand03 Rope3_Seg09
Rope4_Seg01 null_rope04_connect
Rope4_Seg02 Rope4_Seg01
Rope4_Seg03 Rope4_Seg02
Rope4_Seg04 Rope4_Seg03
Rope4_Seg05 Rope4_Seg04
Rope4_Seg06 Rope4_Seg05
Rope4_Seg07 Rope4_Seg06
Rope4_Seg08 Rope4_Seg07
Rope4_Seg09 Rope4_Seg08
L_rear_hand01 Rope4_Seg09
L_rear_hand02 Rope4_Seg09
L_rear_hand03 Rope4_Seg09
[BasePosition]
#SegmentName Tx, Ty, Tz, Rx, Ry, Rz, BoneLength
MASTER 0.000000 0.000000 0.000000 -90.000000 0.000000 0.000000 10.000000 
root 0.000000 0.000000 0.000000 0.000000 0.000000 0.000000 10.000000 
chest 0.000000 0.000000 0.000000 0.000000 0.000000 0.000000 10.000000 
L_mid_tent01 0.000000 0.000000 0.000000 0.000000 0.000000 0.000000 10.000000 
R_mid_tent01 0.000000 0.000000 0.000000 0.000000 0.000000 0.000000 10.000000 
spine01 0.000000 0.000000 0.000000 0.000000 0.000000 0.000000 10.000000 
Bip01_Neck 0.000000 0.000000 0.000000 0.000000 0.000000 0.000000 10.000000 
L_humerus 0.000000 0.000000 0.000000 0.000000 0.000000 0.000000 10.000000 
R_humerus 0.000000 0.000000 0.000000 0.000000 0.000000 0.000000 10.000000 
weapon_bone 0.000000 0.000000 0.000000 0.000000 0.000000 0.000000 10.000000 
Bip01_Head 0.000000 0.000000 0.000000 0.000000 0.000000 0.000000 10.000000 
eye_left_bone 0.000000 0.000000 0.000000 0.000000 0.000000 0.000000 10.000000 
eye_right_bone 0.000000 0.000000 0.000000 0.000000 0.000000 0.000000 10.000000 
L_forearm 0.000000 0.000000 0.000000 0.000000 0.000000 0.000000 10.000000 
L_front_hand 0.000000 0.000000 0.000000 0.000000 0.000000 0.000000 10.000000 
L_weapon_bone 0.000000 0.000000 0.000000 0.000000 0.000000 0.000000 10.000000 
L_front_hand01_01 0.000000 0.000000 0.000000 0.000000 0.000000 0.000000 10.000000 
L_front_hand02_01 0.000000 0.000000 0.000000 0.000000 0.000000 0.000000 10.000000 
L_front_hand03_01 0.000000 0.000000 0.000000 0.000000 0.000000 0.000000 10.000000 
L_front_hand01_02 0.000000 0.000000 0.000000 0.000000 0.000000 0.000000 10.000000 
L_front_hand02_02 0.000000 0.000000 0.000000 0.000000 0.000000 0.000000 10.000000 
L_front_hand03_02 0.000000 0.000000 0.000000 0.000000 0.000000 0.000000 10.000000 
R_forearm 0.000000 0.000000 0.000000 0.000000 0.000000 0.000000 10.000000 
R_front_hand 0.000000 0.000000 0.000000 0.000000 0.000000 0.000000 10.000000 
R_weapon_bone 0.000000 0.000000 0.000000 0.000000 0.000000 0.000000 10.000000 
R_front_hand01_01 0.000000 0.000000 0.000000 0.000000 0.000000 0.000000 10.000000 
R_front_hand02_01 0.000000 0.000000 0.000000 0.000000 0.000000 0.000000 10.000000 
R_front_hand03_01 0.000000 0.000000 0.000000 0.000000 0.000000 0.000000 10.000000 
R_front_hand01_02 0.000000 0.000000 0.000000 0.000000 0.000000 0.000000 10.000000 
R_front_hand02_02 0.000000 0.000000 0.000000 0.000000 0.000000 0.000000 10.000000 
R_front_hand03_02 0.000000 0.000000 0.000000 0.000000 0.000000 0.000000 10.000000 
null_rope01_connect 0.000000 0.000000 0.000000 0.000000 0.000000 0.000000 10.000000 
Rope1_Seg01 0.000000 0.000000 0.000000 0.000000 0.000000 0.000000 10.000000 
Rope1_Seg02 0.000000 0.000000 0.000000 0.000000 0.000000 0.000000 10.000000 
Rope1_Seg03 0.000000 0.000000 0.000000 0.000000 0.000000 0.000000 10.000000 
Rope1_Seg04 0.000000 0.000000 0.000000 0.000000 0.000000 0.000000 10.000000 
Rope1_Seg05 0.000000 0.000000 0.000000 0.000000 0.000000 0.000000 10.000000 
Rope1_Seg06 0.000000 0.000000 0.000000 0.000000 0.000000 0.000000 10.000000 
Rope1_Seg07 0.000000 0.000000 0.000000 0.000000 0.000000 0.000000 10.000000 
Rope1_Seg09 0.000000 0.000000 0.000000 0.000000 0.000000 0.000000 10.000000 
L_mid_hand01 0.000000 0.000000 0.000000 0.000000 0.000000 0.000000 10.000000 
L_mid_hand02 0.000000 0.000000 0.000000 0.000000 0.000000 0.000000 10.000000 
L_mid_hand03 0.000000 0.000000 0.000000 0.000000 0.000000 0.000000 10.000000 
null_rope02_connect 0.000000 0.000000 0.000000 0.000000 0.000000 0.000000 10.000000 
Rope2_Seg01 0.000000 0.000000 0.000000 0.000000 0.000000 0.000000 10.000000 
Rope2_Seg02 0.000000 0.000000 0.000000 0.000000 0.000000 0.000000 10.000000 
Rope2_Seg03 0.000000 0.000000 0.000000 0.000000 0.000000 0.000000 10.000000 
Rope2_Seg04 0.000000 0.000000 0.000000 0.000000 0.000000 0.000000 10.000000 
Rope2_Seg05 0.000000 0.000000 0.000000 0.000000 0.000000 0.000000 10.000000 
Rope2_Seg06 0.000000 0.000000 0.000000 0.000000 0.000000 0.000000 10.000000 
Rope2_Seg07 0.000000 0.000000 0.000000 0.000000 0.000000 0.000000 10.000000 
Rope2_Seg09 0.000000 0.000000 0.000000 0.000000 0.000000 0.000000 10.000000 
R_mid_hand01 0.000000 0.000000 0.000000 0.000000 0.000000 0.000000 10.000000 
R_mid_hand02 0.000000 0.000000 0.000000 0.000000 0.000000 0.000000 10.000000 
R_mid_hand03 0.000000 0.000000 0.000000 0.000000 0.000000 0.000000 10.000000 
spine02 0.000000 0.000000 0.000000 0.000000 0.000000 0.000000 10.000000 
spine03 0.000000 0.000000 0.000000 0.000000 0.000000 0.000000 10.000000 
pelvis 0.000000 0.000000 0.000000 0.000000 0.000000 0.000000 10.000000 
null_rope03_connect 0.000000 0.000000 0.000000 0.000000 0.000000 0.000000 10.000000 
null_rope04_connect 0.000000 0.000000 0.000000 0.000000 0.000000 0.000000 10.000000 
Rope3_Seg01 0.000000 0.000000 0.000000 0.000000 0.000000 0.000000 10.000000 
Rope3_Seg02 0.000000 0.000000 0.000000 0.000000 0.000000 0.000000 10.000000 
Rope3_Seg03 0.000000 0.000000 0.000000 0.000000 0.000000 0.000000 10.000000 
Rope3_Seg04 0.000000 0.000000 0.000000 0.000000 0.000000 0.000000 10.000000 
Rope3_Seg05 0.000000 0.000000 0.000000 0.000000 0.000000 0.000000 10.000000 
Rope3_Seg06 0.000000 0.000000 0.000000 0.000000 0.000000 0.000000 10.000000 
Rope3_Seg07 0.000000 0.000000 0.000000 0.000000 0.000000 0.000000 10.000000 
Rope3_Seg08 0.000000 0.000000 0.000000 0.000000 0.000000 0.000000 10.000000 
Rope3_Seg09 0.000000 0.000000 0.000000 0.000000 0.000000 0.000000 10.000000 
R_rear_hand01 0.000000 0.000000 0.000000 0.000000 0.000000 0.000000 10.000000 
R_rear_hand02 0.000000 0.000000 0.000000 0.000000 0.000000 0.000000 10.000000 
R_rear_hand03 0.000000 0.000000 0.000000 0.000000 0.000000 0.000000 10.000000 
Rope4_Seg01 0.000000 0.000000 0.000000 0.000000 0.000000 0.000000 10.000000 
Rope4_Seg02 0.000000 0.000000 0.000000 0.000000 0.000000 0.000000 10.000000 
Rope4_Seg03 0.000000 0.000000 0.000000 0.000000 0.000000 0.000000 10.000000 
Rope4_Seg04 0.000000 0.000000 0.000000 0.000000 0.000000 0.000000 10.000000 
Rope4_Seg05 0.000000 0.000000 0.000000 0.000000 0.000000 0.000000 10.000000 
Rope4_Seg06 0.000000 0.000000 0.000000 0.000000 0.000000 0.000000 10.000000 
Rope4_Seg07 0.000000 0.000000 0.000000 0.000000 0.000000 0.000000 10.000000 
Rope4_Seg08 0.000000 0.000000 0.000000 0.000000 0.000000 0.000000 10.000000 
Rope4_Seg09 0.000000 0.000000 0.000000 0.000000 0.000000 0.000000 10.000000 
L_rear_hand01 0.000000 0.000000 0.000000 0.000000 0.000000 0.000000 10.000000 
L_rear_hand02 0.000000 0.000000 0.000000 0.000000 0.000000 0.000000 10.000000 
L_rear_hand03 0.000000 0.000000 0.000000 0.000000 0.000000 0.000000 10.000000 
#Beginning of Data. Separated by tabs
#Fr	Tx	Ty	Tz	Rx	Ry	Rz	SF
[MASTER]
9 -0.000153 800.237305 0.000035 0.001660 0.001660 0.001660 800.237305
10 -0.000173 900.266724 0.000040 0.001660 0.001660 0.001660 900.266724
[root]
9 -24.639238 1.361246 1411.168457 -91.726509 -11.582131 -89.471634 1411.384155
10 -29.379099 6.179657 1416.900757 -91.726212 -11.581835 -89.471634 1417.218750
[chest]
9 -84.512650 -34.090519 0.000000 -2.165921 -0.132767 164.969650 91.129311
10 -84.512650 -34.090519 0.000000 -2.166759 -0.124565 165.144119 91.129311
[L_mid_tent01]
9 27.299095 22.179197 -249.918686 -19.566952 7.447569 17.099974 252.381668
10 27.299097 22.179190 -249.918686 -19.578531 6.381142 17.284246 252.381668
[R_mid_tent01]
9 23.228794 24.509907 226.238495 -167.429932 -10.184249 27.722624 228.744751
10 23.228794 24.509907 226.238495 -167.624496 -9.566741 28.015472 228.744751
[spine01]
9 -0.361383 -0.195265 0.000000 -0.000001 -0.000007 22.052340 0.410763
10 -0.361383 -0.195265 0.000000 -0.000001 -0.000007 22.052340 0.410763
[Bip01_Neck]
9 165.484543 71.581718 0.000119 176.643677 -1.657967 43.431911 180.302734
10 165.484543 71.581718 0.000119 176.643677 -1.657967 43.431911 180.302734
[L_humerus]
9 -13.983130 -135.272980 -120.471481 -6.487049 80.543549 77.810677 181.680161
10 -13.983130 -135.272980 -120.471481 -5.945641 80.380104 77.981544 181.680161
[R_humerus]
9 -13.983309 -135.273102 125.287651 45.274433 -76.915939 49.664906 184.909012
10 -13.983309 -135.273102 125.287651 44.412136 -76.715385 50.552471 184.909012
[weapon_bone]
9 235.964890 -300.705902 0.000000 0.000000 -89.951546 -128.212341 382.234833
10 235.964890 -300.705902 0.000000 0.000000 -89.951546 -128.212341 382.234833
[Bip01_Head]
9 213.648972 185.146255 19.126736 4.972661 4.781313 -43.887043 283.356415
10 213.673691 185.076447 20.027437 4.962490 2.797846 -43.898743 283.391663
[eye_left_bone]
9 -24.626970 125.451866 -64.772606 0.000000 -90.000000 -99.840431 143.318359
10 -24.626970 125.451866 -64.772606 0.000000 -90.000000 -99.840431 143.318359
[eye_right_bone]
9 -24.626970 125.451866 64.327362 0.000000 -89.965736 80.156380 143.117676
10 -24.626970 125.451866 64.327362 0.000000 -89.965736 80.156380 143.117676
[L_forearm]
9 322.776093 0.000000 -0.000119 0.000396 -0.002314 -109.419975 322.776093
10 322.776093 0.000000 -0.000119 0.000396 -0.002314 -109.419975 322.776093
[L_front_hand]
9 241.149185 -0.042021 -3.300071 -178.667953 -1.835447 -27.422350 241.171753
10 241.149185 -0.042021 -3.300071 -178.667953 -1.835447 -27.422350 241.171753
[L_weapon_bone]
9 156.183838 0.000000 0.000000 0.000014 0.000007 0.000001 156.183838
10 156.183838 0.000000 0.000000 0.000014 0.000007 0.000001 156.183838
[L_front_hand01_01]
9 86.095154 20.947098 -0.655860 -0.306535 -0.513312 68.646957 88.609184
10 86.095154 20.947098 -0.655860 -0.291918 -0.522545 67.227623 88.609184
[L_front_hand02_01]
9 86.935165 -11.437475 24.513514 145.004044 -56.473930 -50.323570 91.046425
10 86.935165 -11.437475 24.513514 143.299133 -55.645813 -48.269917 91.046425
[L_front_hand03_01]
9 86.637497 -14.123976 -20.424902 -145.151367 54.687611 -52.198399 90.126129
10 86.637497 -14.123976 -20.424902 -143.556335 53.862476 -50.232788 90.126129
[L_front_hand01_02]
9 71.020905 -0.000179 0.000030 0.000316 -0.002326 -105.490036 71.020905
10 71.020905 -0.000179 0.000030 0.000316 -0.002326 -105.466431 71.020905
[L_front_hand02_02]
9 71.020927 -0.000119 0.000060 0.000316 -0.002326 -105.490036 71.020927
10 71.020927 -0.000119 0.000060 0.000316 -0.002326 -105.466431 71.020927
[L_front_hand03_02]
9 71.020905 -0.000060 0.000060 0.000316 -0.002326 -105.490036 71.020905
10 71.020905 -0.000060 0.000060 0.000316 -0.002326 -105.466431 71.020905
[R_forearm]
9 322.776428 -0.000060 0.000030 0.202103 0.065158 -108.062805 322.776428
10 322.776428 -0.000060 0.000030 0.202103 0.065158 -108.062805 322.776428
[R_front_hand]
9 238.847015 -0.006795 2.210259 -2.635298 -10.645461 -26.312506 238.857239
10 238.847015 -0.006795 2.210259 -2.635298 -10.645461 -26.312506 238.857239
[R_weapon_bone]
9 155.664093 0.002503 -0.000030 0.003487 0.001180 -90.988930 155.664078
10 155.664093 0.002503 -0.000030 0.003487 0.001180 -90.988930 155.664078
[R_front_hand01_01]
9 87.624611 14.231146 22.918642 -145.613235 -56.747219 51.157963 91.683487
10 87.624611 14.231146 22.918642 -143.671631 -55.829556 48.823868 91.683487
[R_front_hand02_01]
9 89.356956 14.367283 -19.491137 146.110458 55.128284 53.601921 92.579636
10 89.356956 14.367283 -19.491137 144.272369 54.223438 51.351048 92.579636
[R_front_hand03_01]
9 87.286232 -22.307278 -0.143439 0.113738 -0.439575 -69.369316 90.091743
10 87.286232 -22.307278 -0.143439 0.102142 -0.441771 -67.781387 90.091743
[R_front_hand01_02]
9 71.020905 0.000060 0.000119 0.002323 -0.000334 106.381714 71.020905
10 71.020905 0.000060 0.000119 0.002323 -0.000334 106.381714 71.020905
[R_front_hand02_02]
9 71.020844 -0.000030 -0.000119 0.002323 -0.000334 106.381714 71.020836
10 71.020844 -0.000030 -0.000119 0.002323 -0.000334 106.381714 71.020836
[R_front_hand03_02]
9 71.020905 0.000000 0.000030 0.002323 -0.000334 106.381714 71.020905
10 71.020905 0.000000 0.000030 0.002323 -0.000334 106.381714 71.020905
[null_rope01_connect]
9 328.732483 0.000000 -0.000238 -166.926910 -67.509476 -109.763802 328.732483
10 328.732483 0.000000 -0.000238 -169.610718 -67.816124 -107.095657 328.732483
[Rope1_Seg01]
9 -0.000015 0.000023 0.000061 98.518059 -8.183747 -97.512413 0.000067
10 -0.000017 0.000021 0.000069 96.205193 -8.068703 -99.344109 0.000074
[Rope1_Seg02]
9 139.999863 -0.000179 0.000000 -6.120073 -1.103483 -3.892607 139.999863
10 139.999863 -0.000179 0.000000 -5.820853 -0.552785 -4.081380 139.999863
[Rope1_Seg03]
9 139.999924 0.000060 -0.000060 -9.880876 -4.209466 -3.887417 139.999924
10 139.999924 0.000060 -0.000060 -10.430107 -4.033524 -4.451669 139.999924
[Rope1_Seg04]
9 139.999924 -0.000060 -0.000119 -3.036535 0.964324 -4.022366 139.999924
10 139.999924 -0.000060 -0.000119 -2.474845 1.555907 -4.129180 139.999924
[Rope1_Seg05]
9 139.999832 0.000119 -0.000060 12.794638 13.143732 1.441705 139.999832
10 139.999832 0.000119 -0.000060 15.556809 14.658904 3.197402 139.999832
[Rope1_Seg06]
9 139.999954 0.000119 -0.000060 3.540045 5.399984 -0.574378 139.999954
10 139.999954 0.000119 -0.000060 4.064167 5.957522 -0.272404 139.999954
[Rope1_Seg07]
9 139.999985 0.000060 0.000000 1.236575 2.367199 -0.566436 139.999985
10 139.999985 0.000060 0.000000 1.405883 2.589523 -0.471188 139.999985
[Rope1_Seg09]
9 121.602913 0.000119 -0.000089 -89.793175 -1.359789 0.847147 121.602913
10 121.602913 0.000119 -0.000089 -89.793175 -1.359789 0.847147 121.602913
[L_mid_hand01]
9 103.859421 1.038730 8.195221 109.056190 -40.604698 -13.201404 104.187431
10 103.859421 1.038730 8.195221 109.301483 -41.408253 -13.576799 104.187431
[L_mid_hand02]
9 105.572853 -4.139662 -10.864139 -146.713593 31.476528 -37.902313 106.211075
10 105.572853 -4.139662 -10.864139 -147.153671 31.943630 -38.737034 106.211075
[L_mid_hand03]
9 104.641464 17.579376 -3.913581 -14.267232 12.322316 43.898403 106.179977
10 104.641464 17.579376 -3.913581 -14.087292 12.528420 44.741467 106.179977
[null_rope02_connect]
9 328.732849 0.000179 -0.000119 -154.648987 75.360275 -47.278427 328.732849
10 328.732849 0.000179 -0.000119 -156.252655 75.904236 -48.683182 328.732849
[Rope2_Seg01]
9 0.000095 0.000153 0.000031 -27.431414 -4.382869 -62.394508 0.000183
10 0.000095 0.000153 0.000034 -27.733500 -5.737781 -60.776867 0.000183
[Rope2_Seg02]
9 139.999741 -0.000060 -0.000119 1.075594 7.944497 -2.744923 139.999756
10 139.999741 -0.000060 -0.000119 -0.349779 7.988359 -3.682200 139.999756
[Rope2_Seg03]
9 140.000107 0.000030 0.000000 5.170907 6.099571 1.422603 140.000107
10 140.000107 0.000030 0.000000 3.548038 5.909302 0.095664 140.000107
[Rope2_Seg04]
9 139.999802 0.000000 -0.000060 -3.987044 2.322528 -4.757951 139.999802
10 139.999802 0.000000 -0.000060 -3.056041 3.398872 -4.252581 139.999802
[Rope2_Seg05]
9 139.999985 -0.000060 0.000119 -9.199405 -0.375799 -9.928826 139.999985
10 139.999985 -0.000060 0.000119 -7.345834 1.362197 -8.518957 139.999985
[Rope2_Seg06]
9 139.999893 -0.000030 -0.000119 -4.236461 0.978101 -5.614522 139.999893
10 139.999893 -0.000030 -0.000119 -3.407413 1.678411 -4.899146 139.999893
[Rope2_Seg07]
9 139.999893 0.000060 -0.000060 -2.164601 0.993333 -3.302197 139.999893
10 139.999893 0.000060 -0.000060 -1.709722 1.364132 -2.863275 139.999893
[Rope2_Seg09]
9 121.338966 0.000089 -0.000060 33.793236 -1.359788 -0.847141 121.338966
10 121.338966 0.000089 -0.000060 33.793236 -1.359788 -0.847141 121.338966
[R_mid_hand01]
9 104.680779 11.144459 -10.335981 -33.085686 36.191681 44.913227 105.778534
10 104.680779 11.144459 -10.335981 -34.826851 34.540035 41.908733 105.778534
[R_mid_hand02]
9 104.070427 2.443552 8.231699 67.611252 -49.370300 17.897308 104.424065
10 104.070427 2.443552 8.231699 68.824310 -46.622631 16.260359 104.424065
[R_mid_hand03]
9 106.028137 -11.221827 -5.996406 -171.571182 13.427422 -54.737041 106.788818
10 106.028137 -11.221827 -5.996406 -170.883774 12.973572 -51.735531 106.788818
[spine02]
9 129.756927 0.001550 0.000119 0.360061 -4.044797 -12.915058 129.756927
10 129.756927 0.001550 0.000119 0.360061 -4.044797 -12.915058 129.756927
[spine03]
9 78.614037 0.081740 -4.899000 1.896495 3.831288 16.473045 78.766571
10 78.614037 0.081740 -4.898999 1.896495 3.831288 16.473045 78.766571
[pelvis]
9 169.435242 0.051022 0.000000 -0.060465 -0.180225 14.087930 169.435257
10 169.435242 0.051022 0.000000 -0.060465 -0.180225 14.087930 169.435257
[null_rope03_connect]
9 -1.257226 -2.466202 137.391083 156.048126 -89.383881 -94.149094 137.418976
10 -1.257226 -2.466202 137.391083 156.012405 -89.384514 -94.113297 137.418976
[null_rope04_connect]
9 -1.259640 -2.480268 -137.844437 156.048126 -89.383881 -94.149094 137.872513
10 -1.259640 -2.480268 -137.844437 156.012405 -89.384514 -94.113297 137.872513
[Rope3_Seg01]
9 -0.000023 -0.000061 0.000000 15.952875 20.345354 -83.722755 0.000065
10 -0.000023 -0.000069 0.000000 14.060302 22.119200 -88.682808 0.000073
[Rope3_Seg02]
9 139.999924 -0.000119 0.000060 0.029471 1.951082 -1.852818 139.999924
10 139.999924 -0.000119 0.000060 0.048897 1.114148 0.788545 139.999924
[Rope3_Seg03]
9 139.999924 -0.000119 0.000119 0.011079 2.044720 -1.689896 139.999924
10 139.999924 -0.000119 0.000119 0.061506 1.148567 1.035989 139.999924
[Rope3_Seg04]
9 139.999924 0.000119 0.000000 -0.077658 2.434256 -1.637434 139.999924
10 139.999924 0.000119 0.000000 0.009902 1.332069 1.559819 139.999924
[Rope3_Seg05]
9 139.999924 -0.000238 0.000060 0.145051 -0.635236 -0.884443 139.999924
10 139.999924 -0.000238 0.000060 0.144000 0.087553 -1.437465 139.999924
[Rope3_Seg06]
9 139.999893 -0.000119 -0.000060 0.497882 -2.291909 -0.324895 139.999893
10 139.999893 -0.000119 -0.000060 0.404140 -0.538685 -2.483210 139.999893
[Rope3_Seg07]
9 139.999771 0.000060 -0.000119 0.554615 -1.094310 -0.414157 139.999771
10 139.999771 0.000060 -0.000119 0.477914 -0.136748 -1.205688 139.999771
[Rope3_Seg08]
9 139.999985 -0.000060 0.000000 0.572293 -0.713986 -0.298661 139.999985
10 139.999985 -0.000060 0.000000 0.511688 -0.088785 -0.790063 139.999985
[Rope3_Seg09]
9 90.185997 -0.000179 -0.000060 89.793228 -1.359877 -0.847183 90.185997
10 90.185997 -0.000179 -0.000060 89.793228 -1.359877 -0.847183 90.185997
[R_rear_hand01]
9 103.366196 -6.073594 -10.757982 -166.818848 21.039259 -46.280426 104.101845
10 103.366196 -6.073594 -10.757982 -165.718872 20.328495 -43.170486 104.101845
[R_rear_hand02]
9 100.509819 12.039542 -7.992327 -28.339693 27.613865 43.697414 101.543350
10 100.509819 12.039542 -7.992327 -29.668055 26.160351 40.761948 101.543350
[R_rear_hand03]
9 101.539970 5.215704 5.435467 81.685280 -46.725750 9.939899 101.819031
10 101.539970 5.215704 5.435467 82.115250 -43.756126 9.334551 101.819031
[Rope4_Seg01]
9 -0.000015 -0.000046 -0.000153 -98.430138 19.930347 -98.771820 0.000160
10 -0.000015 -0.000042 -0.000153 -99.175377 20.150229 -101.000999 0.000159
[Rope4_Seg02]
9 139.999985 0.000060 0.000119 0.008069 -2.006441 0.481326 139.999985
10 139.999985 0.000060 0.000119 -0.055326 -2.263340 0.630983 139.999985
[Rope4_Seg03]
9 139.999924 0.000000 -0.000238 0.056838 -2.199561 0.475445 139.999924
10 139.999924 0.000000 -0.000238 0.001653 -2.382386 0.713961 139.999924
[Rope4_Seg04]
9 139.999985 0.000000 0.000119 0.118854 -2.793212 0.265911 139.999985
10 139.999985 0.000000 0.000119 0.043577 -2.150409 1.192982 139.999985
[Rope4_Seg05]
9 139.999802 -0.000060 -0.000119 0.211008 -2.018846 1.313731 139.999802
10 139.999802 -0.000060 -0.000119 0.155859 -3.970690 0.119972 139.999802
[Rope4_Seg06]
9 139.999924 0.000000 0.000060 0.204656 -0.519533 1.044292 139.999924
10 139.999924 0.000000 0.000060 0.194830 -2.915643 -0.592029 139.999924
[Rope4_Seg07]
9 139.999802 0.000000 0.000000 0.197163 -0.523472 0.510168 139.999802
10 139.999802 0.000000 0.000000 0.216527 -1.615344 -0.154725 139.999802
[Rope4_Seg08]
9 139.999924 0.000000 0.000119 -1.413725 -0.320930 0.312278 139.999924
10 139.999924 0.000000 0.000119 -1.392460 -0.988476 -0.075362 139.999924
[Rope4_Seg09]
9 90.185791 0.000060 0.000060 -135.617828 2.228885 0.850567 90.185791
10 90.185791 0.000060 0.000060 -135.617828 2.228885 0.850567 90.185791
[L_rear_hand01]
9 101.696655 -8.392275 -7.654577 -30.719042 -24.879360 141.681366 102.329041
10 101.696655 -8.392275 -7.654577 -29.575453 -26.270130 139.027267 102.329041
[L_rear_hand02]
9 102.726799 -1.568258 5.773216 82.428490 41.230476 171.131027 102.900848
10 102.726799 -1.568258 5.773216 82.088585 43.973633 170.624878 102.900848
[L_rear_hand03]
9 104.552910 9.721220 -10.420293 -164.822937 -19.676041 -139.457672 105.519653
10 104.552910 9.721220 -10.420293 -165.800003 -20.376877 -136.601624 105.519653
